<svg width="500" height="500" viewBox="0 0 500 500" fill="none" xmlns="http://www.w3.org/2000/svg">
<path d="M500 382.398H0V382.648H500V382.398Z" fill="#EBEBEB"/>
<path d="M449.901 398.494H428.222V398.744H449.901V398.494Z" fill="#EBEBEB"/>
<path d="M344.667 393.306H310.558V393.556H344.667V393.306Z" fill="#EBEBEB"/>
<path d="M441.111 389.208H396.586V389.458H441.111V389.208Z" fill="#EBEBEB"/>
<path d="M173.015 394.25H161.877V394.5H173.015V394.25Z" fill="#EBEBEB"/>
<path d="M152.974 394.25H114.585V394.5H152.974V394.25Z" fill="#EBEBEB"/>
<path d="M94.002 390.028H66.307V390.278H94.002V390.028Z" fill="#EBEBEB"/>
<path d="M237.014 337.8H43.915C40.768 337.8 38.207 335.239 38.207 332.092V60.66C38.207 57.513 40.768 54.952 43.915 54.952H237.014C240.16 54.952 242.721 57.513 242.721 60.66V332.092C242.721 335.239 240.16 337.8 237.014 337.8ZM43.915 55.203C40.905 55.203 38.457 57.651 38.457 60.661V332.093C38.457 335.103 40.905 337.551 43.915 337.551H237.014C240.023 337.551 242.471 335.103 242.471 332.093V60.66C242.471 57.651 240.023 55.202 237.014 55.202L43.915 55.203Z" fill="#EBEBEB"/>
<path d="M453.31 337.8H260.212C257.065 337.8 254.505 335.239 254.505 332.092V60.66C254.505 57.513 257.066 54.952 260.212 54.952H453.31C456.458 54.952 459.018 57.513 459.018 60.66V332.092C459.019 335.239 456.458 337.8 453.31 337.8ZM260.212 55.203C257.203 55.203 254.755 57.651 254.755 60.661V332.093C254.755 335.103 257.203 337.551 260.212 337.551H453.31C456.32 337.551 458.768 335.103 458.768 332.093V60.66C458.768 57.651 456.32 55.202 453.31 55.202L260.212 55.203Z" fill="#EBEBEB"/>
<path d="M216.072 200.878L216.522 187.737L208.454 185.101C208.122 180.611 207.371 176.177 206.303 171.905L213.141 166.863L208.496 154.52L200.038 155.201C198.022 151.21 195.653 147.413 192.998 143.851L197.379 136.538L188.371 126.927L180.809 130.799C177.403 127.904 173.813 125.283 169.97 122.965L171.195 114.571L159.197 109.126L153.7 115.568C149.512 114.209 145.173 113.193 140.684 112.519L138.64 104.291L125.464 103.84L122.862 111.909C118.337 112.274 113.938 112.991 109.667 114.06L104.589 107.255L92.247 111.866L92.929 120.325C88.937 122.375 85.141 124.743 81.579 127.399L74.301 123.019L64.655 131.991L68.526 139.587C65.633 142.959 63.01 146.585 60.725 150.429L52.333 149.17L46.854 161.166L53.33 166.664C51.972 170.853 50.919 175.226 50.281 179.682L42.017 181.758L41.567 194.899L49.669 197.538C50 202.061 50.752 206.462 51.821 210.732L44.984 215.774L49.629 228.118L58.087 227.435C60.103 231.426 62.472 235.223 65.127 238.785L60.745 246.098L69.754 255.71L77.315 251.837C80.687 254.731 84.312 257.355 88.155 259.673L86.895 268.064L98.893 273.509L104.425 267.068C108.613 268.427 112.952 269.443 117.442 270.117L119.486 278.345L132.662 278.796L135.265 270.727C139.789 270.362 144.188 269.645 148.459 268.576L153.502 275.379L165.844 270.768L165.196 262.312C169.189 260.262 172.95 257.891 176.546 255.236L183.825 259.618L193.47 250.645L189.6 243.049C192.493 239.677 195.116 236.051 197.401 232.207L205.793 233.467L211.272 221.47L204.795 215.972C206.154 211.784 207.205 207.446 207.844 202.956L216.072 200.878ZM127.276 243.449C98.498 242.463 75.963 218.329 76.949 189.55C77.936 160.737 102.07 138.204 130.848 139.19C159.626 140.176 182.161 164.308 181.174 193.121C180.188 221.9 156.054 244.435 127.276 243.449Z" fill="#EBEBEB"/>
<path d="M440.957 157.423L444.271 154.328L442.947 151.718C443.961 150.542 444.859 149.278 445.64 147.976L448.537 148.414L450.414 144.272L448.185 142.376C448.667 140.911 449.015 139.408 449.236 137.892L452.088 137.177L452.235 132.637L449.447 131.737C449.322 130.201 449.086 128.686 448.714 127.184L451.06 125.436L449.462 121.183L446.551 121.413C445.861 120.06 445.051 118.754 444.121 117.496L445.629 114.991L442.526 111.668L439.923 113C438.73 111.985 437.483 111.088 436.181 110.307L436.602 107.409L432.468 105.524L430.572 107.753C429.099 107.279 427.596 106.931 426.079 106.71L425.372 103.867L420.832 103.703L419.924 106.499C418.396 106.616 416.873 106.86 415.378 107.241L413.639 104.888L409.378 106.477L409.616 109.397C408.263 110.087 406.94 110.897 405.698 111.828L403.177 110.319L399.863 113.414L401.195 116.033C400.173 117.217 399.283 118.473 398.502 119.775L395.605 119.337L393.727 123.48L395.956 125.376C395.474 126.841 395.126 128.344 394.905 129.86L392.053 130.575L391.906 135.116L394.694 136.015C394.811 137.543 395.055 139.067 395.426 140.569L393.073 142.308L394.671 146.561L397.591 146.339C398.281 147.692 399.091 148.997 400.022 150.257L398.514 152.762L401.617 156.085L404.219 154.752C405.411 155.766 406.659 156.664 407.961 157.445L407.532 160.334L411.666 162.219L413.57 159.999C415.044 160.473 416.539 160.812 418.063 161.041L418.77 163.884L423.31 164.048L424.218 161.252C425.746 161.135 427.269 160.891 428.764 160.51L430.503 162.864L434.765 161.275L434.526 158.355C435.878 157.665 437.193 156.864 438.444 155.925L440.957 157.423ZM417.341 138.292C414.903 135.681 415.043 131.586 417.654 129.148C420.268 126.707 424.363 126.847 426.801 129.459C429.239 132.07 429.099 136.165 426.485 138.606C423.874 141.044 419.779 140.903 417.341 138.292Z" fill="#EBEBEB"/>
<path d="M319.989 292.336L309.648 285.194C309.645 285.186 309.645 285.177 309.642 285.169C308.619 281.412 307.208 277.796 305.483 274.397L308.132 263.999L293.132 247.934L282.573 249.867C279.303 247.916 275.794 246.262 272.119 244.985C272.111 244.983 272.101 244.981 272.093 244.977L265.673 234.167L243.708 233.414L236.566 243.755C236.553 243.758 236.539 243.762 236.525 243.765C232.772 244.788 229.159 246.196 225.765 247.919L215.372 245.27L199.308 260.271L201.237 270.809C201.235 270.813 201.233 270.814 201.231 270.818C199.239 274.125 197.623 277.635 196.346 281.312L185.538 287.729L184.785 309.695L195.135 316.843C196.157 320.626 197.524 324.234 199.282 327.661C199.283 327.663 199.283 327.663 199.284 327.665L196.642 338.031L211.642 354.094L222.135 352.174C225.447 354.132 228.961 355.788 232.681 357.067C232.684 357.069 232.686 357.069 232.69 357.069L239.099 367.863L261.064 368.616L268.201 358.282C271.998 357.261 275.616 355.851 279.052 354.124C279.052 354.124 279.054 354.124 279.055 354.122L289.401 356.758L305.465 341.759L303.536 331.219C305.528 327.912 307.144 324.4 308.421 320.723L308.422 320.721L319.234 314.3L319.989 292.336ZM251.537 325.726C237.883 325.258 227.217 313.795 227.683 300.18C228.151 286.526 239.575 275.859 253.229 276.326C266.883 276.794 277.55 288.218 277.083 301.872C276.617 315.487 265.191 326.194 251.537 325.726Z" fill="#EBEBEB"/>
<path d="M343.548 229.954C343.524 229.954 343.5 229.954 343.476 229.953L326.159 229.36C325.44 229.336 324.783 228.946 324.416 228.328L319.753 220.476C317.274 219.577 314.831 218.443 312.47 217.098L304.963 218.471C304.255 218.605 303.531 218.362 303.04 217.835L291.214 205.172C290.723 204.646 290.534 203.906 290.711 203.209L292.599 195.799C291.452 193.452 290.492 190.945 289.74 188.329L282.209 183.128C281.617 182.72 281.274 182.037 281.298 181.319L281.891 164.002C281.915 163.283 282.305 162.626 282.923 162.259L290.789 157.588C291.722 155.034 292.853 152.603 294.159 150.34L292.78 142.807C292.651 142.1 292.89 141.374 293.416 140.884L306.081 129.057C306.607 128.565 307.347 128.377 308.044 128.554L315.479 130.449C317.884 129.279 320.383 128.315 322.928 127.578L328.125 120.053C328.533 119.461 329.204 119.095 329.935 119.143L347.252 119.737C347.971 119.761 348.628 120.15 348.995 120.769L353.667 128.635C356.149 129.544 358.573 130.675 360.894 132.007L368.448 130.623C369.157 130.494 369.881 130.733 370.372 131.259L382.198 143.925C382.689 144.451 382.878 145.191 382.701 145.888L380.805 153.326C381.976 155.732 382.939 158.23 383.677 160.772L391.202 165.968C391.794 166.376 392.137 167.059 392.113 167.778L391.52 185.096C391.496 185.815 391.106 186.472 390.488 186.839L382.619 191.512C381.686 194.065 380.557 196.495 379.253 198.755L380.632 206.291C380.761 206.998 380.522 207.724 379.996 208.214L367.331 220.038C366.806 220.53 366.067 220.72 365.369 220.541L357.968 218.655C355.529 219.833 353.016 220.796 350.48 221.525L345.288 229.044C344.891 229.614 344.241 229.954 343.548 229.954ZM327.457 225.179L342.466 225.694L347.437 218.496C347.721 218.085 348.143 217.787 348.626 217.657C351.391 216.914 354.134 215.862 356.781 214.531C356.786 214.529 356.79 214.527 356.795 214.524C357.236 214.307 357.75 214.24 358.253 214.371L365.291 216.164L376.268 205.915L374.955 198.741C374.862 198.235 374.958 197.713 375.223 197.271C376.671 194.868 377.899 192.232 378.873 189.437C379.033 188.941 379.372 188.524 379.814 188.264L387.337 183.796L387.851 168.786L380.648 163.811C380.271 163.551 379.989 163.175 379.844 162.742C379.826 162.688 379.81 162.631 379.796 162.573C379.043 159.815 377.995 157.105 376.682 154.518C376.45 154.061 376.393 153.536 376.518 153.04L378.322 145.962L368.072 134.983L360.883 136.299C360.379 136.392 359.86 136.297 359.421 136.035C356.921 134.543 354.281 133.31 351.575 132.369C351.422 132.316 351.267 132.245 351.134 132.164C350.842 131.984 350.599 131.737 350.425 131.443L345.953 123.914L330.944 123.399L325.969 130.603C325.673 131.032 325.23 131.334 324.726 131.455C321.949 132.216 319.248 133.26 316.672 134.567C316.215 134.799 315.689 134.857 315.195 134.73L308.12 132.926L297.143 143.177L298.456 150.35C298.539 150.8 298.472 151.265 298.268 151.674C298.239 151.732 298.207 151.788 298.173 151.844C296.722 154.256 295.492 156.9 294.519 159.703C294.355 160.173 294.031 160.571 293.603 160.825L286.075 165.296L285.561 180.305L292.771 185.285C293.182 185.568 293.479 185.989 293.61 186.471C294.387 189.347 295.433 192.078 296.72 194.588C296.794 194.732 296.852 194.884 296.891 195.042C296.976 195.381 296.975 195.736 296.889 196.075L295.091 203.129L305.341 214.105L312.479 212.799C312.98 212.708 313.496 212.801 313.933 213.059C316.478 214.564 319.131 215.796 321.821 216.724C322.307 216.878 322.728 217.207 322.995 217.658L327.457 225.179ZM336.728 206.214C336.358 206.214 335.989 206.207 335.617 206.194C318.171 205.596 304.464 190.917 305.062 173.471C305.66 156.026 320.363 142.323 337.785 142.915C355.231 143.513 368.938 158.192 368.34 175.639C368.051 184.079 364.49 191.908 358.314 197.681C352.403 203.207 344.774 206.214 336.728 206.214ZM336.69 147.12C321.992 147.12 309.79 158.815 309.283 173.616C308.765 188.734 320.643 201.455 335.762 201.973C343.088 202.218 350.073 199.605 355.431 194.596C360.784 189.592 363.87 182.808 364.12 175.494C364.638 160.376 352.759 147.654 337.641 147.136C337.323 147.126 337.005 147.12 336.69 147.12Z" fill="#EBEBEB"/>
<path d="M383.439 105.323L376.265 103.397L374.339 96.224L377.148 93.415L380.111 99.551L386.247 102.515L383.439 105.323Z" fill="#E0E0E0"/>
<path d="M383.884 100.521C385.191 99.214 385.191 97.084 383.884 95.777C382.577 94.47 380.457 94.48 379.15 95.787L382.718 90.434L387.504 92.853L388.553 97.882L383.884 100.521Z" fill="#E0E0E0"/>
<path d="M376.582 93.981L381.839 88.724L389.012 90.65L390.939 97.824L385.682 103.081L378.508 101.154L376.582 93.981ZM386.127 98.279C387.434 96.972 387.434 94.842 386.127 93.535C384.82 92.228 382.7 92.238 381.393 93.545C380.086 94.852 380.086 96.963 381.393 98.269C382.7 99.576 384.82 99.586 386.127 98.279Z" fill="#F0F0F0"/>
<path d="M90.221 296.708L94.07 295.674L95.104 291.825L93.597 290.318L92.007 293.611L88.714 295.201L90.221 296.708Z" fill="#E0E0E0"/>
<path d="M89.982 294.131C89.281 293.43 89.281 292.287 89.982 291.585C90.683 290.884 91.821 290.889 92.522 291.59L90.607 288.717L88.039 290.015L87.476 292.713L89.982 294.131Z" fill="#E0E0E0"/>
<path d="M93.901 290.622L91.08 287.801L87.231 288.835L86.197 292.685L89.018 295.506L92.867 294.472L93.901 290.622ZM88.778 292.928C88.077 292.227 88.077 291.084 88.778 290.382C89.479 289.681 90.617 289.686 91.318 290.387C92.019 291.088 92.019 292.221 91.318 292.922C90.618 293.624 89.48 293.629 88.778 292.928Z" fill="#F0F0F0"/>
<path d="M76.363 85.662L79.558 88.857C80.39 89.689 81.751 89.689 82.583 88.857C83.415 88.025 83.415 86.664 82.583 85.832L79.388 82.637C78.556 81.805 77.195 81.805 76.363 82.637C75.531 83.469 75.531 84.831 76.363 85.662Z" fill="#F0F0F0"/>
<path d="M74.112 77.705C76.574 76.821 79.243 77.977 80.073 80.288C80.903 82.599 79.58 85.189 77.118 86.074C74.656 86.958 71.987 85.802 71.157 83.491C70.327 81.18 71.65 78.59 74.112 77.705Z" fill="#E0E0E0"/>
<path d="M70.6305 82.9577L71.0935 84.247L80.6005 80.8325L80.1375 79.5432L70.6305 82.9577Z" fill="#F0F0F0"/>
<path d="M250 427.561C357.082 427.561 443.889 422.492 443.889 416.238C443.889 409.985 357.082 404.915 250 404.915C142.918 404.915 56.111 409.985 56.111 416.238C56.111 422.492 142.918 427.561 250 427.561Z" fill="#F5F5F5"/>
<path d="M128.68 171.581C128.62 171.581 128.559 171.57 128.499 171.547C123.998 169.804 121.305 168.101 119.907 166.055C118.891 166.259 117.754 166.124 116.675 165.611C115.627 165.113 114.618 164.242 113.894 162.989C113.219 163.51 112.385 163.652 111.469 163.364C110.453 163.045 109.396 162.189 108.517 160.953C107.958 161.357 107.385 161.418 106.965 161.383C103.992 161.141 99.964 155.223 99.675 148.916C99.662 148.641 99.876 148.406 100.152 148.395C100.422 148.372 100.662 148.595 100.674 148.872C100.948 154.857 104.783 160.203 107.047 160.387C107.414 160.423 107.721 160.308 107.979 160.108C106.621 157.725 105.916 154.327 106.956 150.696C107.816 147.691 108.576 146.516 109.488 146.734C111.211 147.163 110.985 153.706 110.072 158.022C109.865 159.001 109.567 159.703 109.227 160.205C110.016 161.37 110.951 162.154 111.77 162.412C112.502 162.642 113.044 162.447 113.444 162.066C112.658 160.13 112.495 157.492 113.562 154.127C114.966 149.698 115.531 149.578 115.869 149.507C116.107 149.456 116.345 149.535 116.514 149.727C117.438 150.77 116.334 157.649 115.17 161.051C115.019 161.493 114.831 161.88 114.613 162.208C115.234 163.425 116.149 164.254 117.106 164.709C117.874 165.074 118.662 165.207 119.379 165.14C119.289 164.951 119.208 164.759 119.135 164.564C118.342 162.417 118.73 159.938 120.32 156.986C121.375 155.028 122.235 154.115 123.027 154.114C123.262 154.114 123.703 154.201 124.014 154.776C124.886 156.385 124.255 161.695 122.531 164.33C122.125 164.951 121.564 165.422 120.913 165.728C122.253 167.49 124.797 169.042 128.862 170.618C129.119 170.718 129.247 171.007 129.148 171.264C129.07 171.46 128.88 171.581 128.68 171.581ZM123.026 155.111C123.023 155.111 122.461 155.115 121.199 157.458C119.753 160.143 119.384 162.353 120.072 164.215C120.156 164.443 120.256 164.665 120.372 164.885C120.906 164.656 121.363 164.284 121.693 163.781C123.093 161.64 123.764 157.243 123.243 155.524C123.136 155.172 123.027 155.111 123.026 155.111ZM115.854 150.898C115.596 151.383 115.162 152.382 114.514 154.427C113.656 157.135 113.651 159.311 114.129 160.975C114.162 160.891 114.193 160.807 114.222 160.724C115.398 157.286 115.971 152.55 115.854 150.898ZM109.268 147.748C109.099 147.903 108.613 148.533 107.916 150.969C106.997 154.182 107.563 157.113 108.643 159.215C108.85 158.781 108.994 158.281 109.093 157.813C110.13 152.902 109.828 148.459 109.268 147.748Z" fill="#263238"/>
<path d="M166.698 223.997C165.173 223.997 163.569 223.649 162.137 222.808C161.899 222.667 161.819 222.362 161.959 222.123C162.098 221.884 162.405 221.807 162.643 221.944C166.21 224.039 170.821 222.577 171.77 221.051C171.88 220.872 171.981 220.645 171.917 220.38C170.506 220.529 168.77 220.155 166.786 218.914C164.241 217.323 164.045 216.85 164.061 216.472C164.071 216.248 164.198 216.053 164.402 215.949C165.398 215.444 169.907 217.523 171.787 218.759C172.033 218.921 172.241 219.096 172.409 219.281C173.24 219.079 173.884 218.649 174.312 218.136C174.606 217.783 174.802 217.399 174.899 217.014C174.833 217.024 174.766 217.032 174.699 217.038C173.1 217.199 171.496 216.513 169.788 214.934C168.614 213.849 168.158 213.101 168.31 212.508C168.358 212.319 168.516 211.983 169.029 211.855C170.412 211.511 173.826 212.966 175.222 214.497C175.536 214.841 175.75 215.246 175.864 215.681C177.169 215.068 178.549 213.693 180.183 211.41C180.344 211.185 180.656 211.134 180.881 211.295C181.106 211.455 181.157 211.768 180.997 211.992C179.108 214.632 177.533 216.128 175.951 216.738C175.889 217.442 175.598 218.158 175.082 218.778C174.575 219.385 173.836 219.907 172.901 220.189C173.001 220.639 172.911 221.115 172.621 221.581C171.776 222.938 169.358 223.997 166.698 223.997ZM165.81 217.061C166.146 217.309 166.628 217.637 167.316 218.068C168.673 218.917 169.882 219.308 170.916 219.39C169.259 218.363 167.092 217.454 165.81 217.061ZM169.3 212.813C169.356 212.969 169.578 213.38 170.466 214.201C171.952 215.575 173.304 216.186 174.597 216.045C174.703 216.034 174.81 216.019 174.917 215.997C174.846 215.693 174.701 215.412 174.483 215.172C173.076 213.629 169.983 212.652 169.3 212.813Z" fill="#263238"/>
<path d="M179.942 222.625L164.36 225.455L150.213 148.243L120.149 153.704L71.16 240.703L76.42 269.411L139.257 257.997L143.559 281.478L173.623 276.017L169.321 252.537L184.903 249.706L179.942 222.625ZM101.094 236.948L127.053 191.381L134.297 230.917L101.094 236.948Z" fill="#2563EB"/>
<path d="M305.43 142.992C304.848 137.658 303.783 132.919 302.233 128.774C300.684 124.629 298.353 120.566 295.243 116.585C292.133 112.604 287.898 109.148 282.539 106.219C277.179 103.291 270.105 101.252 261.316 100.107C243.024 97.724 228.765 100.972 218.534 109.847C208.302 118.724 201.571 135.728 198.336 160.858C197.02 171.079 196.694 180.527 197.359 189.203C198.022 197.878 199.614 204.856 202.137 210.136C205.588 217.555 210.472 223.48 216.786 227.908C223.099 232.337 231.748 235.268 242.736 236.699C262.333 239.252 276.855 235.491 286.305 225.412C295.753 215.335 302.022 198.3 305.11 174.311C306.489 163.608 306.595 153.169 305.43 142.992Z" fill="#2563EB"/>
<path d="M323.043 119.124L323.564 117.867C323.565 117.867 323.566 117.866 323.567 117.866C323.941 117.673 324.292 117.441 324.613 117.181L325.774 117.225L327.134 115.273L326.69 114.199C326.822 113.809 326.918 113.4 326.969 112.982C326.969 112.981 326.969 112.98 326.969 112.979L327.967 112.054L327.548 109.712L326.291 109.191C326.29 109.19 326.29 109.188 326.289 109.187C326.096 108.813 325.865 108.463 325.605 108.142L325.649 106.982L323.697 105.622L322.625 106.065H322.624C322.229 105.929 321.821 105.838 321.403 105.786L320.478 104.788L318.136 105.207L317.614 106.465C317.237 106.659 316.886 106.886 316.563 107.15L315.406 107.106L314.047 109.058L314.488 110.125C314.356 110.52 314.26 110.929 314.21 111.352L313.213 112.276L313.632 114.618L314.888 115.139C315.082 115.518 315.314 115.869 315.575 116.193L315.531 117.348L317.483 118.708L318.555 118.264C318.95 118.4 319.359 118.491 319.777 118.543L320.702 119.542L323.043 119.124ZM317.954 112.637C317.694 111.181 318.665 109.792 320.116 109.532C321.572 109.272 322.96 110.238 323.221 111.694C323.482 113.15 322.514 114.538 321.059 114.799C319.608 115.059 318.215 114.093 317.954 112.637Z" fill="#2563EB"/>
<path d="M295.607 112.489L294.843 111.844C296.171 110.272 298.054 108.28 300.851 106.815L301.315 107.702C298.333 109.263 296.423 111.524 295.607 112.489Z" fill="#2563EB"/>
<path d="M303.591 106.802L303.196 105.882C306.979 104.262 310.931 103.63 314.935 104.002L314.842 104.998C311.002 104.632 307.218 105.246 303.591 106.802Z" fill="#2563EB"/>
<path d="M301.703 113.72L300.877 113.157C302.931 110.14 306.99 107.513 310.748 106.768L310.942 107.748C307.42 108.448 303.621 110.903 301.703 113.72Z" fill="#2563EB"/>
<path d="M251.108 217.965C249.232 217.896 247.237 217.713 245.175 217.422C238.037 216.416 232.513 214.461 228.757 211.609C225.052 208.797 222.248 205.097 220.185 200.295L220.147 200.208C218.648 196.813 217.668 191.978 217.234 185.838C216.763 179.181 217.004 171.771 217.95 163.81C220.734 140.416 226.483 130.655 230.815 126.587C235.867 121.845 242.685 119.701 251.661 120.033C253.499 120.102 255.447 120.28 257.448 120.562C263.208 121.374 267.765 122.753 270.994 124.661C274.12 126.51 276.563 128.636 278.254 130.977C280.129 133.573 281.533 136.206 282.429 138.8C283.383 141.559 284.056 144.841 284.43 148.554C285.261 156.41 285.182 164.549 284.202 172.793C282.039 190.97 277.862 203.742 271.787 210.753C267.28 215.956 260.516 218.316 251.11 217.966C251.108 217.965 251.108 217.965 251.108 217.965Z" fill="#F5F5F5"/>
<path d="M425.826 231.65L410.131 229.532L420.511 151.724L390.23 147.638L316.777 215.264L312.918 244.193L376.21 252.735L373.054 276.397L403.335 280.483L406.491 256.821L422.186 258.939L425.826 231.65ZM346.408 220.932L385.166 185.604L379.851 225.445L346.408 220.932Z" fill="#2563EB"/>
<path d="M251.514 291.375C261.662 291.375 269.889 283.148 269.889 273C269.889 262.852 261.662 254.625 251.514 254.625C241.366 254.625 233.139 262.852 233.139 273C233.139 283.148 241.366 291.375 251.514 291.375Z" fill="white"/>
<path d="M253.927 254.654C245.223 253.168 235.917 259.584 235 266.084L269.507 269.257C268.291 261.847 260.833 255.833 253.927 254.654Z" fill="#263238"/>
<path d="M265.576 272.543C265.329 277.347 262.711 281.117 259.728 280.964C256.745 280.811 254.527 276.792 254.773 271.988C255.02 267.184 257.638 263.414 260.621 263.567C263.604 263.72 265.823 267.739 265.576 272.543Z" fill="#263238"/>
<path d="M251.514 292.375C240.83 292.375 232.138 283.684 232.138 273C232.138 262.316 240.83 253.625 251.514 253.625C262.198 253.625 270.889 262.316 270.889 273C270.889 283.684 262.197 292.375 251.514 292.375ZM251.514 255.625C241.933 255.625 234.138 263.419 234.138 273C234.138 282.581 241.932 290.375 251.514 290.375C261.095 290.375 268.889 282.581 268.889 273C268.889 263.419 261.094 255.625 251.514 255.625Z" fill="#2563EB"/>
<path opacity="0.3" d="M290.485 304.277C290.446 304.277 290.407 304.272 290.367 304.263C290.099 304.198 289.933 303.928 289.998 303.659C290.031 303.524 293.217 289.965 289.908 276.256C289.843 275.988 290.008 275.718 290.277 275.652C290.542 275.592 290.815 275.752 290.88 276.021C294.248 289.971 291.004 303.755 290.97 303.893C290.915 304.124 290.711 304.277 290.485 304.277Z" fill="white"/>
<path opacity="0.3" d="M287.698 268.759C287.508 268.759 287.327 268.651 287.243 268.467C285.957 265.661 284.362 263.085 282.501 260.81C282.326 260.596 282.358 260.282 282.572 260.107C282.785 259.931 283.1 259.962 283.276 260.177C285.19 262.518 286.831 265.167 288.152 268.051C288.267 268.302 288.157 268.599 287.906 268.713C287.838 268.744 287.768 268.759 287.698 268.759Z" fill="white"/>
<path d="M128.735 409.918C128.611 409.918 128.487 409.917 128.363 409.913C125.603 409.837 123.427 407.538 123.502 404.777C123.577 402.017 125.851 399.882 128.637 399.917C128.668 399.918 128.7 399.918 128.733 399.918C131.622 399.918 138.572 396.408 153.111 373.488C153.892 372.258 155.172 371.428 156.614 371.218C158.059 371.013 159.519 371.441 160.619 372.398C178.56 388.041 197.573 397.778 197.763 397.875C200.224 399.125 201.207 402.135 199.957 404.596C198.707 407.058 195.699 408.043 193.238 406.792C192.483 406.409 175.864 397.912 158.44 383.646C146.254 401.965 137.211 409.918 128.735 409.918Z" fill="#263238"/>
<path d="M159.67 371.5C159.528 371.5 159.386 371.49 159.242 371.47C157.602 371.236 156.462 369.716 156.697 368.075C157.408 363.098 156.527 344.449 150.222 329.949C149.647 328.628 150.093 327.085 151.284 326.273C164.982 316.938 194.16 315.822 195.396 315.779C197.043 315.743 198.44 317.017 198.498 318.673C198.556 320.328 197.26 321.718 195.605 321.775C195.335 321.785 169.825 322.763 156.717 329.977C162.301 344.415 163.567 362.414 162.636 368.924C162.422 370.421 161.139 371.5 159.67 371.5Z" fill="#263238"/>
<path d="M164.71 367.616C162.715 362.91 153.722 363.445 148.442 367.478C145.62 369.633 141.801 376.119 141.399 378.469C140.998 380.82 142.626 382.949 145.422 382.707C148.87 382.409 153.603 377.398 153.603 377.398C150.454 380.486 154.517 382.665 160.58 378.199C163.944 375.722 166.944 372.886 164.71 367.616Z" fill="#2563EB"/>
<path d="M336.706 306.161C336.661 306.161 336.614 306.155 336.568 306.141C336.303 306.065 336.149 305.787 336.226 305.523C337.558 300.883 339.013 298.048 340.926 296.472C340.633 295.476 340.666 294.332 341.079 293.213C341.481 292.124 342.258 291.042 343.441 290.208C342.862 289.582 342.646 288.763 342.851 287.826C343.078 286.785 343.835 285.656 344.987 284.67C344.534 284.149 344.423 283.582 344.42 283.162C344.395 280.18 349.927 275.637 356.182 274.783C356.456 274.732 356.708 274.936 356.745 275.211C356.782 275.484 356.591 275.736 356.317 275.774C350.379 276.585 345.4 280.883 345.42 283.154C345.423 283.522 345.559 283.818 345.782 284.057C348.033 282.49 351.356 281.482 355.064 282.194C358.133 282.781 359.381 283.429 359.237 284.361C358.965 286.114 352.428 286.476 348.047 285.955C347.054 285.837 346.327 285.602 345.797 285.309C344.708 286.2 344.01 287.2 343.828 288.039C343.665 288.788 343.907 289.31 344.323 289.675C346.179 288.718 348.792 288.318 352.239 289.08C356.776 290.081 356.945 290.634 357.047 290.963C357.119 291.198 357.061 291.44 356.886 291.625C355.93 292.638 348.98 292.157 345.488 291.302C345.033 291.191 344.632 291.039 344.285 290.851C343.128 291.58 342.384 292.564 342.017 293.559C341.723 294.357 341.656 295.152 341.791 295.862C341.971 295.755 342.155 295.657 342.343 295.567C344.412 294.585 346.914 294.75 349.997 296.068C352.042 296.944 353.028 297.718 353.1 298.507C353.122 298.74 353.076 299.187 352.53 299.549C351.005 300.562 345.66 300.408 342.882 298.929C342.227 298.579 341.708 298.064 341.344 297.443C339.709 298.936 338.391 301.609 337.188 305.798C337.123 306.019 336.923 306.161 336.706 306.161ZM342.131 296.83C342.407 297.342 342.818 297.764 343.35 298.047C345.607 299.248 350.046 299.523 351.712 298.851C352.052 298.713 352.103 298.598 352.103 298.598C352.103 298.595 352.048 298.035 349.602 296.989C346.799 295.79 344.564 295.622 342.771 296.471C342.553 296.575 342.339 296.694 342.131 296.83ZM345.465 290.262C345.551 290.287 345.638 290.311 345.723 290.332C349.254 291.196 354.021 291.344 355.656 291.075C355.15 290.861 354.116 290.519 352.021 290.057C349.248 289.446 347.08 289.637 345.465 290.262ZM346.727 284.64C347.178 284.808 347.688 284.907 348.164 284.963C353.147 285.553 357.546 284.856 358.204 284.235C358.034 284.081 357.363 283.653 354.875 283.177C351.592 282.552 348.724 283.375 346.727 284.64Z" fill="#263238"/>
<path d="M206.527 408.248C207.186 408.037 206.965 407.401 206.23 407.401H192.691C166.91 404.671 148.897 408.33 160.248 409.193C171.598 410.056 159.449 409.875 151.16 413.01C142.871 416.146 212.814 416.936 219.175 413.01C225.041 409.389 197.392 411.176 206.527 408.248Z" fill="#263238"/>
<path d="M303.469 412.238L185.667 408.333L180.778 294.111L319.889 297.222L303.469 412.238Z" fill="#2563EB"/>
<path d="M222.452 410.053C222.194 410.053 221.975 409.856 221.954 409.594L212.511 294.873C212.488 294.598 212.693 294.356 212.969 294.334C213.252 294.318 213.486 294.516 213.508 294.791L222.951 409.512C222.973 409.787 222.769 410.029 222.493 410.051C222.479 410.052 222.465 410.053 222.452 410.053Z" fill="#263238"/>
<path d="M303.469 412.238L335.131 407.418L345.104 301.208L319.889 297.222L303.469 412.238Z" fill="#2563EB"/>
<path opacity="0.2" d="M303.469 412.238L335.131 407.418L345.104 301.208L319.889 297.222L303.469 412.238Z" fill="black"/>
<path d="M195.734 386.316L192.83 318.455C192.527 311.371 198.274 305.506 205.362 305.665L293.421 307.634C300.775 307.798 306.332 314.352 305.292 321.634L295.529 390.025C294.644 396.223 289.234 400.761 282.977 400.553L207.586 398.054C201.174 397.841 196.009 392.725 195.734 386.316Z" fill="white"/>
<path d="M205.247 326.488L218.871 326.922L218.759 330.435L210.23 330.164L210.147 332.779L218.059 333.031L217.952 336.386L210.04 336.134L209.937 339.377L218.713 339.656L218.595 343.382L204.724 342.941L205.247 326.488Z" fill="black"/>
<path d="M221.4 343.471L221.923 327.019L230.396 327.289C231.967 327.339 233.164 327.512 233.985 327.808C234.807 328.104 235.46 328.624 235.946 329.37C236.432 330.116 236.658 331.012 236.624 332.06C236.595 332.973 236.375 333.754 235.965 334.404C235.555 335.054 235.002 335.574 234.308 335.963C233.866 336.211 233.264 336.409 232.502 336.557C233.101 336.779 233.536 336.995 233.806 337.205C233.988 337.346 234.25 337.643 234.591 338.096C234.932 338.549 235.159 338.897 235.271 339.141L237.581 343.987L231.837 343.804L229.28 338.69C228.956 338.029 228.663 337.596 228.4 337.393C228.041 337.127 227.63 336.986 227.166 336.971L226.717 336.957L226.505 343.635L221.4 343.471ZM226.818 333.848L228.961 333.916C229.193 333.923 229.644 333.863 230.315 333.735C230.654 333.678 230.934 333.515 231.156 333.245C231.378 332.975 231.495 332.66 231.506 332.301C231.523 331.77 231.368 331.357 231.04 331.062C230.712 330.767 230.085 330.605 229.157 330.575L226.924 330.504L226.818 333.848Z" fill="black"/>
<path d="M239.277 344.04L239.8 327.588L248.273 327.858C249.844 327.908 251.041 328.081 251.862 328.377C252.684 328.673 253.337 329.193 253.823 329.939C254.309 330.685 254.535 331.582 254.501 332.629C254.472 333.542 254.252 334.323 253.842 334.973C253.431 335.623 252.879 336.143 252.185 336.532C251.743 336.78 251.141 336.978 250.379 337.126C250.978 337.348 251.413 337.564 251.683 337.774C251.866 337.915 252.127 338.212 252.469 338.665C252.81 339.118 253.037 339.466 253.149 339.71L255.459 344.556L249.714 344.373L247.157 339.259C246.834 338.598 246.54 338.165 246.277 337.962C245.918 337.696 245.507 337.555 245.043 337.54L244.594 337.526L244.382 344.203L239.277 344.04ZM244.695 334.417L246.838 334.485C247.07 334.492 247.521 334.432 248.192 334.303C248.531 334.246 248.811 334.083 249.033 333.813C249.255 333.543 249.372 333.228 249.383 332.869C249.4 332.338 249.245 331.925 248.917 331.63C248.589 331.335 247.961 331.173 247.034 331.143L244.801 331.072L244.695 334.417Z" fill="black"/>
<path d="M256.316 336.359C256.402 333.673 257.216 331.606 258.76 330.157C260.304 328.709 262.411 328.027 265.082 328.112C267.82 328.199 269.907 329.001 271.341 330.518C272.776 332.035 273.451 334.118 273.367 336.767C273.306 338.69 272.932 340.257 272.246 341.467C271.559 342.677 270.594 343.605 269.349 344.251C268.104 344.897 266.569 345.19 264.743 345.132C262.888 345.073 261.362 344.729 260.165 344.099C258.968 343.469 258.012 342.503 257.297 341.199C256.582 339.895 256.255 338.282 256.316 336.359ZM261.399 336.543C261.346 338.204 261.617 339.407 262.211 340.152C262.805 340.897 263.633 341.287 264.696 341.321C265.788 341.356 266.645 341.027 267.266 340.336C267.887 339.644 268.227 338.378 268.286 336.537C268.335 334.989 268.059 333.847 267.457 333.113C266.855 332.378 266.019 331.994 264.949 331.96C263.924 331.927 263.089 332.264 262.445 332.97C261.801 333.676 261.452 334.867 261.399 336.543Z" fill="black"/>
<path d="M275.907 345.205L276.43 328.753L284.903 329.023C286.474 329.073 287.671 329.246 288.492 329.542C289.314 329.838 289.967 330.358 290.453 331.104C290.939 331.85 291.165 332.747 291.131 333.794C291.102 334.707 290.882 335.488 290.472 336.138C290.062 336.788 289.509 337.308 288.815 337.697C288.372 337.945 287.77 338.143 287.009 338.291C287.608 338.513 288.043 338.729 288.313 338.939C288.495 339.08 288.757 339.377 289.098 339.83C289.439 340.283 289.666 340.631 289.778 340.875L292.088 345.721L286.344 345.538L283.787 340.424C283.463 339.763 283.17 339.33 282.907 339.127C282.548 338.861 282.137 338.72 281.673 338.705L281.224 338.691L281.012 345.368L275.907 345.205ZM281.325 335.582L283.468 335.65C283.7 335.657 284.151 335.597 284.822 335.468C285.161 335.411 285.441 335.248 285.663 334.978C285.885 334.708 286.002 334.393 286.013 334.034C286.03 333.503 285.875 333.09 285.547 332.795C285.219 332.5 284.592 332.338 283.664 332.308L281.431 332.237L281.325 335.582Z" fill="black"/>
<path d="M283.999 373.158C283.643 373.158 283.289 373.014 283.029 372.731L274.468 363.362L265.231 371.801C264.696 372.291 263.866 372.252 263.377 371.718L254.816 362.349L245.579 370.788C245.044 371.277 244.213 371.239 243.725 370.705L235.164 361.336L225.927 369.776C225.671 370.011 225.325 370.134 224.983 370.119C224.635 370.103 224.308 369.95 224.073 369.693L215.512 360.324L206.275 368.763C205.74 369.252 204.91 369.213 204.421 368.68C203.932 368.145 203.97 367.314 204.505 366.825L214.71 357.5C215.245 357.009 216.075 357.048 216.565 357.583L225.126 366.952L234.363 358.512C234.619 358.277 234.964 358.155 235.307 358.169C235.655 358.185 235.982 358.338 236.217 358.595L244.778 367.964L254.015 359.525C254.549 359.035 255.38 359.073 255.869 359.608L264.43 368.977L273.667 360.538C274.202 360.047 275.032 360.085 275.522 360.621L284.968 370.959C285.457 371.494 285.419 372.325 284.884 372.814C284.632 373.045 284.315 373.158 283.999 373.158Z" fill="black"/>
<path d="M125.75 414.667L119.492 411.682L113.909 384.515L116.939 381.178L125.75 414.667Z" fill="#2563EB"/>
<path d="M125.75 414.667L134.055 409.815L126.935 387.432L116.939 381.178L125.75 414.667Z" fill="#2563EB"/>
<path opacity="0.2" d="M125.75 414.667L134.055 409.815L126.935 387.432L116.939 381.178L125.75 414.667Z" fill="black"/>
<path d="M261.949 419.605C261.713 419.605 261.482 419.601 261.258 419.595C258.498 419.519 256.321 417.22 256.397 414.459C256.473 411.7 258.753 409.53 261.532 409.599C269.235 409.851 285.538 405.119 294.851 396.078C295.427 395.519 296.128 395.107 296.897 394.877C312.685 390.139 318.561 399.711 318.804 400.121L310.197 405.211C310.197 405.211 310.23 405.28 310.312 405.394C310.216 405.262 307.981 402.355 300.86 404.154C289.173 414.822 271.233 419.605 261.949 419.605Z" fill="#263238"/>
<path d="M261.395 426.252L243.182 425.104L241.745 391.528L266.222 392.443L261.395 426.252Z" fill="#2563EB"/>
<path d="M261.395 426.252L265.652 422.015L268.291 401.079L266.222 392.443L261.395 426.252Z" fill="#2563EB"/>
<path opacity="0.2" d="M261.395 426.252L265.652 422.015L268.291 401.079L266.222 392.443L261.395 426.252Z" fill="black"/>
<path d="M366.91 413.537C366.278 413.537 365.64 413.338 365.097 412.926C354.702 405.026 340.652 391 335.26 377.469C335.181 377.272 335.124 377.066 335.089 376.856C332.46 361.223 329.948 328.315 329.842 326.921C329.717 325.27 330.954 323.828 332.606 323.703C334.253 323.582 335.699 324.815 335.824 326.468C335.85 326.804 338.387 360.034 340.952 375.541C346.33 388.697 360.909 402.207 368.727 408.148C370.046 409.151 370.303 411.033 369.3 412.352C368.711 413.129 367.816 413.537 366.91 413.537Z" fill="#263238"/>
<path d="M380.778 415.053C378.459 415.053 375.829 414.001 372.964 411.928C371.622 410.956 371.321 409.081 372.293 407.739C373.265 406.397 375.14 406.096 376.482 407.067C378.959 408.86 380.312 409.053 380.779 409.053C382.436 409.053 383.779 410.396 383.779 412.053C383.778 413.71 382.435 415.053 380.778 415.053Z" fill="#263238"/>
<path d="M373.804 411.842C377.014 402.307 390.174 404.191 394.706 405.607C399.238 407.023 403.321 408.805 405.776 410.41C408.231 412.015 408.27 414.695 404.997 416.226C400.961 418.114 390.836 416.439 390.836 416.439C396.077 418.734 390.826 422.411 381.631 418.799C378.637 417.623 372.671 415.336 373.804 411.842Z" fill="#2563EB"/>
<path d="M341.862 331.036C340.671 339.138 333.962 345.112 328.504 344.31C323.046 343.508 322.819 336.272 324.01 328.17C325.201 320.068 327.359 314.169 332.817 314.971C338.275 315.774 343.053 322.935 341.862 331.036Z" fill="#263238"/>
<path d="M209.875 298.694C210.327 298.694 210.694 298.327 210.694 297.875C210.694 297.423 210.327 297.056 209.875 297.056C209.423 297.056 209.056 297.423 209.056 297.875C209.056 298.327 209.423 298.694 209.875 298.694Z" fill="#263238"/>
<path d="M218.208 303.778C218.208 304.23 217.841 304.597 217.389 304.597C216.937 304.597 216.569 304.23 216.569 303.778C216.569 303.325 216.936 302.959 217.389 302.959C217.842 302.959 218.208 303.325 218.208 303.778Z" fill="#263238"/>
<path d="M219.125 400.683C219.125 401.136 218.758 401.502 218.306 401.502C217.853 401.502 217.486 401.135 217.486 400.683C217.486 400.23 217.853 399.864 218.306 399.864C218.758 399.863 219.125 400.23 219.125 400.683Z" fill="#263238"/>
<path d="M226.639 406.586C226.639 407.039 226.272 407.405 225.819 407.405C225.367 407.405 225 407.038 225 406.586C225 406.133 225.367 405.767 225.819 405.767C226.272 405.766 226.639 406.133 226.639 406.586Z" fill="#263238"/>
<path d="M82.51 416.419C80.13 416.419 76.912 414.977 75.177 412.47C75.02 412.243 75.076 411.932 75.303 411.775C75.53 411.617 75.841 411.674 75.999 411.902C77.865 414.596 81.978 416.033 83.804 415.182C83.996 415.092 84.152 414.979 84.271 414.843C82.639 414.089 81.147 412.613 80.745 410.361C80.518 409.094 80.338 407.381 81.384 407.144C82.818 406.822 84.694 410.29 85.416 412.919C85.55 413.405 85.592 413.856 85.546 414.262C86.178 414.435 86.8 414.48 87.333 414.403C87.766 414.34 88.381 414.162 88.708 413.658C87.493 412.837 86.676 411.389 86.403 409.469C86.015 406.735 86.306 406.258 86.609 406.025C86.806 405.874 87.056 405.845 87.297 405.947C88.366 406.402 89.662 410.281 89.91 412.476C89.937 412.718 89.937 412.95 89.913 413.169C90.322 413.332 90.773 413.421 91.262 413.431C92.129 413.481 92.986 413.205 93.672 412.802C93.53 412.713 93.396 412.614 93.27 412.507C92.232 411.62 91.814 410.203 91.99 408.176C92.126 406.609 92.483 405.752 93.113 405.483C93.334 405.385 93.784 405.294 94.321 405.722C95.401 406.585 96.409 409.32 96.047 411.279C95.972 411.684 95.797 412.073 95.545 412.43C97.38 412.746 99.962 412.231 102.189 411.681C102.456 411.616 102.728 411.778 102.794 412.046C102.86 412.315 102.697 412.585 102.429 412.651C99.719 413.321 96.802 413.866 94.741 413.268C93.825 413.997 92.535 414.439 91.243 414.43C90.654 414.418 90.105 414.313 89.604 414.122C89.21 414.793 88.477 415.247 87.48 415.393C86.816 415.492 86.034 415.428 85.242 415.202C85.017 415.577 84.677 415.878 84.229 416.088C83.749 416.31 83.161 416.418 82.51 416.419ZM81.646 408.142C81.588 408.295 81.483 408.801 81.731 410.186C82.06 412.026 83.251 413.249 84.57 413.894C84.564 413.681 84.525 413.445 84.454 413.186C83.668 410.327 82.175 408.357 81.646 408.142ZM87.217 407.27C87.211 407.646 87.245 408.278 87.394 409.329C87.597 410.757 88.123 411.853 88.913 412.552C88.679 410.543 87.788 408.218 87.217 407.27ZM93.508 406.401H93.506C93.504 406.402 93.131 406.591 92.985 408.261C92.839 409.944 93.145 411.084 93.919 411.745C94.095 411.895 94.295 412.021 94.518 412.124C94.801 411.811 94.994 411.461 95.061 411.096C95.329 409.647 94.639 407.525 93.865 406.666C93.665 406.443 93.536 406.401 93.508 406.401Z" fill="#263238"/>
<path d="M228.873 423.978L231.583 419.278L228.873 414.578H225.972L227.611 419.278L225.972 423.978H228.873Z" fill="#263238"/>
<path d="M226.163 421.728C224.813 421.728 223.713 420.628 223.713 419.278C223.713 417.928 224.813 416.838 226.163 416.838L221.555 415.916L220.333 419.637L222.389 422.776L226.163 421.728Z" fill="#263238"/>
<path d="M226.557 414.578H221.127L218.417 419.278L221.127 423.978H226.557L229.267 419.278L226.557 414.578ZM223.847 421.728C222.497 421.728 221.397 420.628 221.397 419.278C221.397 417.928 222.497 416.838 223.847 416.838C225.197 416.838 226.287 417.928 226.287 419.278C226.287 420.628 225.197 421.728 223.847 421.728Z" fill="#2563EB"/>
<path d="M417.889 414.265L415.877 410.774L417.889 407.284H420.044L418.827 410.775L420.044 414.265H417.889Z" fill="#2563EB"/>
<path d="M419.902 412.594C420.905 412.594 421.722 411.777 421.722 410.774C421.722 409.772 420.905 408.962 419.902 408.962L423.324 408.277L424.232 411.041L422.705 413.372L419.902 412.594Z" fill="#2563EB"/>
<path d="M419.61 407.284H423.643L425.656 410.774L423.643 414.265H419.61L417.597 410.774L419.61 407.284ZM421.623 412.594C422.626 412.594 423.443 411.777 423.443 410.774C423.443 409.772 422.626 408.962 421.623 408.962C420.62 408.962 419.811 409.772 419.811 410.774C419.81 411.777 420.62 412.594 421.623 412.594Z" fill="#263238"/>
<path d="M342.948 418.898H347.466C348.642 418.898 349.605 417.936 349.605 416.759C349.605 415.583 348.642 414.62 347.466 414.62H342.948C341.771 414.62 340.809 415.583 340.809 416.759C340.809 417.936 341.771 418.898 342.948 418.898Z" fill="#263238"/>
<path d="M335.73 414.863C336.846 412.497 339.55 411.428 341.772 412.475C343.993 413.522 344.889 416.289 343.774 418.655C342.659 421.021 339.954 422.09 337.733 421.043C335.51 419.996 334.614 417.229 335.73 414.863Z" fill="#2563EB"/>
<path d="M337.002 421.024L338.241 421.608L342.55 412.471L341.31 411.886L337.002 421.024Z" fill="#263238"/>
</svg>
